# xmcd CD database file
#
# Track frame offsets:
#	150
#	27203
#	45768
#	67674
#	83154
#	98919
#	110380
#	128682
#	147022
#	163730
#	174304
#	194484
#
# Disc length: 2809 seconds
#
# Revision: 0
# Processed by: cddbd v1.5.1PL0 Copyright (c) Steve Scherf et al.
# Submitted via: CDex 1.51
#
DISCID=8d0af70c
DTITLE=Gila Antara - Das Kind in Dir
DYEAR=1997
DGENRE=New Age
TTITLE0=Ich will leben (Gila Antara)
TTITLE1=Feuervogel (Klaus Hoffmann)
TTITLE2=Das Kind in Dir (Gila Antara)
TTITLE3=Ganz egal (Gila Antara)
TTITLE4=Manchmal (Susanne Schell)
TTITLE5=Hallo Du da (Ingeborg Schmidt)
TTITLE6=Ein neuer Sinn (Gila Antara)
TTITLE7=Hilf mir (Gila Antara)
TTITLE8=Nimm meine Hand (Gila Antara)
TTITLE9=Gut dass es Dich gibt (Ute Trotz)
TTITLE10=In diesem Raum (Monika Wunram)
TTITLE11=Ich schliesse Frieden (Monika Wunram)
EXTD=YEAR: 1997
EXTT0=
EXTT1=
EXTT2=
EXTT3=
EXTT4=
EXTT5=
EXTT6=
EXTT7=
EXTT8=
EXTT9=
EXTT10=
EXTT11=
PLAYORDER=
